# xmcd
#
# Track frame offsets: 
#        150
#        21631
#        42966
#        55526
#        80200
#        98547
#        113575
#        127908
#        142915
#        165028
#        180844
#        198870
#        216639
#        227076
#        249591
#        256446
#        271026
#        281866
#        303451
#        326760
#
# Disc length: 4661 seconds
#
# Revision: 7
# Processed by: cddbd v1.5.2PL0 Copyright (c) Steve Scherf et al.
# Submitted via: ExactAudioCopy v1.5
#
DISCID=11123314
DTITLE=coba - mania coba 3
DYEAR=2004
DGENRE=JPop
TTITLE0=泣カナイデ
TTITLE1=霖雨 -リンユイ-
TTITLE2=時の扉
TTITLE3=ヴィーナス誕生
TTITLE4=チャンネルMを探せ
TTITLE5=真実の口
TTITLE6=いとなみ寓話
TTITLE7=volare -ecstasy-
TTITLE8=most decision
TTITLE9=3番目の i wish
TTITLE10=my way
TTITLE11=canzone stregata
TTITLE12=六番目の小夜子
TTITLE13=伝説のチャンピオン
TTITLE14=promenade
TTITLE15=telephone king
TTITLE16=トリュフ香の南瓜
TTITLE17=ダフネの夢
TTITLE18=丘の上のイノセント
TTITLE19=告白
EXTD=
EXTT0=
EXTT1=
EXTT2=
EXTT3=
EXTT4=
EXTT5=
EXTT6=
EXTT7=
EXTT8=
EXTT9=
EXTT10=
EXTT11=
EXTT12=
EXTT13=
EXTT14=
EXTT15=
EXTT16=
EXTT17=
EXTT18=
EXTT19=
PLAYORDER=
